<svg width="273" height="285" viewBox="0 0 273 285" fill="none" xmlns="http://www.w3.org/2000/svg">
<path d="M118.959 11.0193C126.549 -2.83551 146.451 -2.83551 154.041 11.0193L160.796 23.3505C165.879 32.6304 177.311 36.3449 186.879 31.8254L199.592 25.8199C213.876 19.0722 229.976 30.77 227.973 46.44L226.19 60.3866C224.848 70.8823 231.914 80.6071 242.31 82.5742L256.125 85.1882C271.647 88.1252 277.797 107.053 266.966 118.552L257.326 128.787C250.071 136.49 250.071 148.51 257.326 156.213L266.966 166.448C277.797 177.947 271.647 196.875 256.125 199.812L242.31 202.426C231.914 204.393 224.848 214.118 226.19 224.613L227.973 238.56C229.976 254.23 213.876 265.928 199.592 259.18L186.879 253.175C177.311 248.655 165.879 252.37 160.796 261.65L154.041 273.981C146.451 287.836 126.549 287.836 118.959 273.981L112.204 261.65C107.121 252.37 95.6886 248.655 86.1212 253.175L73.4082 259.18C59.1242 265.928 43.0237 254.23 45.027 238.56L46.8101 224.613C48.1519 214.118 41.0865 204.393 30.6898 202.426L16.8748 199.812C1.35265 196.875 -4.79721 177.947 6.03414 166.448L15.6743 156.213C22.9291 148.51 22.9291 136.49 15.6743 128.787L6.03413 118.552C-4.79722 107.053 1.35266 88.1252 16.8748 85.1882L30.6898 82.5742C41.0865 80.6071 48.1519 70.8823 46.8101 60.3866L45.027 46.44C43.0237 30.77 59.1242 19.0722 73.4082 25.8199L86.1212 31.8254C95.6886 36.3449 107.121 32.6304 112.204 23.3505L118.959 11.0193Z" fill="#CCC9C1"/>
</svg>
